<svg id="Layer_1" data-name="Layer 1" xmlns="http://www.w3.org/2000/svg" xmlns:xlink="http://www.w3.org/1999/xlink" viewBox="0 0 227.42 50.4"><defs><linearGradient id="linear-gradient" x1="32.09" y1="0.81" x2="1.12" y2="43.08" gradientUnits="userSpaceOnUse"><stop offset="0" stop-color="#fff23a"/><stop offset="0.02" stop-color="#ffef3a"/><stop offset="0.5" stop-color="#f28f3f"/><stop offset="1" stop-color="#e83e39"/></linearGradient></defs><title>logo_2</title><path d="M28.53,31.33a34.52,34.52,0,0,1-4.95-1.57,26.87,26.87,0,0,0-3.81-1.19c-.47-.1-1-.15-1.43-.22l-.34,0v0c.46,0,.91-.1,1.38-.12a15.21,15.21,0,0,1,4.29.57c1.32.34,2.63.71,3.94,1a13.83,13.83,0,0,0,4.19.52C36.28,30,37,27,37.16,26.35a8,8,0,0,0-3.84-8.05L12.16,5.67a7.92,7.92,0,0,0-6.08-.9C.83,6.29,2.82,13.3,2.82,13.3a14.62,14.62,0,0,0,2.66,4.87c1.12,1.42,2.28,2.8,3.4,4.22a15.07,15.07,0,0,1,2.77,5c.18.58.27,1.2.4,1.79l-.08,0c-.07-.13-.12-.27-.2-.4-.32-.55-.62-1.11-1-1.63a27.83,27.83,0,0,0-3.58-4,35.82,35.82,0,0,1-4.68-5.12A12.59,12.59,0,0,1,.42,13.19a9.23,9.23,0,0,1-.12-2.84A8.16,8.16,0,0,0,0,12.58V37.82A8,8,0,0,0,1.35,42.3c.33.47,2.38,3.1,6.44,1.76a14.1,14.1,0,0,0,3.72-2c1.11-.79,2.2-1.6,3.31-2.39a15.22,15.22,0,0,1,3.81-2.06c.44-.15.88-.25,1.33-.38v0l-.3.15c-.42.24-.85.46-1.25.72a26.87,26.87,0,0,0-3.14,2.47,34.51,34.51,0,0,1-4.06,3.23,12.69,12.69,0,0,1-3.69,1.66,10,10,0,0,1-1,.2,7.92,7.92,0,0,0,5.61-1L33.32,32.1A8.2,8.2,0,0,0,34.76,31a8.11,8.11,0,0,1-2.2.54A12.69,12.69,0,0,1,28.53,31.33ZM7.08,20.07v0Z" style="fill:url(#linear-gradient)"/><path d="M51.88,13.66l5.82,0a11.3,11.3,0,0,1,8,3.29,10.72,10.72,0,0,1,3.46,8.09,11.3,11.3,0,0,1-3.38,8.23,11.09,11.09,0,0,1-8.2,3.43H51.85q-1.92,0-2.39-.79a4.19,4.19,0,0,1-.38-2V16.43a9.21,9.21,0,0,1,0-1.1,2.55,2.55,0,0,1,.3-.82Q49.86,13.66,51.88,13.66Zm9.91,15.82a5.51,5.51,0,0,0,1.83-4.23A5.69,5.69,0,0,0,61.84,21a5.82,5.82,0,0,0-4.17-1.71h-3v11.9H57.7A5.88,5.88,0,0,0,61.79,29.48Z" style="fill:#f1f1f8"/><path d="M70.29,33.53a3,3,0,0,1-.82-1.81q0-.8,1.35-2.12a2.39,2.39,0,0,1,1.67-.76q.88,0,2.45,1.57a4.81,4.81,0,0,0,1.26,1,3,3,0,0,0,1.51.49q2.93,0,2.93-2.39a1.41,1.41,0,0,0-.8-1.21,5.9,5.9,0,0,0-2-.71,18.23,18.23,0,0,1-5.16-1.86,5.22,5.22,0,0,1-2-2.09,7,7,0,0,1-.8-3.45,6.62,6.62,0,0,1,2.06-4.83,7.59,7.59,0,0,1,5.62-2.06,11.51,11.51,0,0,1,3.45.49,6.64,6.64,0,0,1,2.16,1l.79.6a2.46,2.46,0,0,1,1,1.54,3.48,3.48,0,0,1-.76,1.73Q83.1,20.24,82,20.24a3.22,3.22,0,0,1-1.64-.63A3.57,3.57,0,0,1,80,19.3a5.13,5.13,0,0,0-.49-.41,3.16,3.16,0,0,0-1.68-.41,2.83,2.83,0,0,0-1.7.49,1.58,1.58,0,0,0-.68,1.35,1.62,1.62,0,0,0,.8,1.4,5,5,0,0,0,2,.72,23.6,23.6,0,0,1,2.61.58,16.32,16.32,0,0,1,2.61,1,4.62,4.62,0,0,1,2,2,6.85,6.85,0,0,1,.8,3.45,7.64,7.64,0,0,1-.82,3.6,6.24,6.24,0,0,1-2.14,2.41,9.77,9.77,0,0,1-5.45,1.67,10.6,10.6,0,0,1-2.8-.36,9,9,0,0,1-4.47-2.85Z" style="fill:#f1f1f8"/><path d="M113.29,18.35a8.32,8.32,0,0,1,.82,3.71,8.22,8.22,0,0,1-.82,3.7,7.26,7.26,0,0,1-2.11,2.63,8.77,8.77,0,0,1-5.41,2h-3.93V34a9,9,0,0,1,0,1.09,2.52,2.52,0,0,1-.3.83q-.44.85-2.46.85-2.2,0-2.58-1.16a5.26,5.26,0,0,1-.19-1.64V16.47a9.27,9.27,0,0,1,0-1.09,2.53,2.53,0,0,1,.3-.83q.44-.85,2.46-.85h6.74a8.73,8.73,0,0,1,5.38,2A7.24,7.24,0,0,1,113.29,18.35Zm-5.63,5.79a2.44,2.44,0,0,0,.91-2.08,2.49,2.49,0,0,0-.91-2.09,3,3,0,0,0-1.89-.71h-3.93v5.57h4A3,3,0,0,0,107.65,24.15Z" style="fill:#f1f1f8"/><path d="M121.72,32.11h8.56a3.57,3.57,0,0,1,1.51.24,1.19,1.19,0,0,1,.63.74,5.78,5.78,0,0,1,0,2.68,1.09,1.09,0,0,1-.54.69,3.55,3.55,0,0,1-1.64.31H118.92q-2.2,0-2.58-1.2a5,5,0,0,1-.19-1.6V16.47a9.27,9.27,0,0,1,0-1.09,2.53,2.53,0,0,1,.3-.83q.44-.85,2.46-.85,2.2,0,2.61,1.16a6.29,6.29,0,0,1,.16,1.64Z" style="fill:#f1f1f8"/><path d="M147.94,15.33l8.5,17.56A4.11,4.11,0,0,1,157,34.5q0,1.13-1.83,2a4.13,4.13,0,0,1-1.68.54,1.68,1.68,0,0,1-1-.28,1.88,1.88,0,0,1-.57-.6q-.17-.31-.49-.94l-1.64-3.4h-8.72l-1.64,3.4q-.32.63-.49.91a2.24,2.24,0,0,1-.57.58,1.62,1.62,0,0,1-1,.3,4.12,4.12,0,0,1-1.68-.54q-1.83-.88-1.83-2a4.09,4.09,0,0,1,.54-1.61l8.5-17.6a2.75,2.75,0,0,1,1.05-1.16,2.79,2.79,0,0,1,1.5-.44A2.66,2.66,0,0,1,147.94,15.33Zm-2.55,7.55-2.08,4.31h4.19Z" style="fill:#f1f1f8"/><path d="M172.31,14.14q1.54,1.07,1.54,2.08a3.4,3.4,0,0,1-.72,1.67L166.33,28v6a9.26,9.26,0,0,1,0,1.09,2.53,2.53,0,0,1-.3.83,1.38,1.38,0,0,1-.85.66,6.92,6.92,0,0,1-3.21,0,1.37,1.37,0,0,1-.85-.68,2.68,2.68,0,0,1-.3-.85,9.41,9.41,0,0,1,0-1.12V28l-6.8-10.17a3.39,3.39,0,0,1-.72-1.67q0-1,1.39-1.94a4.5,4.5,0,0,1,2-.93,1.58,1.58,0,0,1,.94.25,4.21,4.21,0,0,1,1.13,1.29l4.88,7.81,4.88-7.81a4.34,4.34,0,0,1,1-1.24,1.78,1.78,0,0,1,1-.3A4.22,4.22,0,0,1,172.31,14.14Z" style="fill:#f1f1f8"/><path d="M184.87,32.39h-7.49q-1.76,0-2.11-1.07a5.48,5.48,0,0,1-.16-1.45,4.36,4.36,0,0,1,.19-1.42,1.3,1.3,0,0,1,.6-.76,3.4,3.4,0,0,1,1.51-.28h7.49q1.76,0,2.08,1a4.63,4.63,0,0,1,.19,1.45,4.88,4.88,0,0,1-.17,1.43,1.29,1.29,0,0,1-.55.77A3.58,3.58,0,0,1,184.87,32.39Z" style="fill:#f1f1f8"/><path d="M194.78,31.2h9.69a9.29,9.29,0,0,1,1.09,0,2.53,2.53,0,0,1,.83.3q.85.44.85,2.45,0,2.2-1.16,2.58a5.27,5.27,0,0,1-1.64.19H192q-2.2,0-2.58-1.2a5,5,0,0,1-.19-1.6V16.47a3,3,0,0,1,.6-2.19,3.29,3.29,0,0,1,2.27-.58h12.4a9.29,9.29,0,0,1,1.09,0,2.53,2.53,0,0,1,.83.3q.85.44.85,2.45,0,2.2-1.16,2.58a5.27,5.27,0,0,1-1.64.19h-9.66v3.18H201a9.29,9.29,0,0,1,1.09,0,2.53,2.53,0,0,1,.83.3q.85.44.85,2.45,0,2.2-1.2,2.58a5.27,5.27,0,0,1-1.64.19h-6.17Z" style="fill:#f1f1f8"/><path d="M226.95,32.86a5,5,0,0,1,.47,1.64q0,1.2-2,2a4.32,4.32,0,0,1-1.62.44,1.62,1.62,0,0,1-1-.3,2.25,2.25,0,0,1-.58-.61q-.31-.6-2.45-5.7l-1,.06h-4V34a9,9,0,0,1,0,1.09,2.52,2.52,0,0,1-.3.83q-.44.85-2.46.85-2.2,0-2.58-1.16a5.26,5.26,0,0,1-.19-1.64V16.47a9.27,9.27,0,0,1,0-1.09,2.53,2.53,0,0,1,.3-.83q.44-.85,2.46-.85h6.8a8.73,8.73,0,0,1,5.38,2,7.41,7.41,0,0,1,2.08,2.64,8.32,8.32,0,0,1,.82,3.71,7.82,7.82,0,0,1-2.36,5.85Q225.5,29.59,226.95,32.86Zm-12.09-8h4a3,3,0,0,0,1.83-.69,2.44,2.44,0,0,0,.91-2.08,2.49,2.49,0,0,0-.91-2.09,3,3,0,0,0-1.89-.71h-4Z" style="fill:#f1f1f8"/></svg>